<?xml version="1.0" standalone="no"?>
<!DOCTYPE svg PUBLIC "-//W3C//DTD SVG 1.1//EN" "http://www.w3.org/Graphics/SVG/1.1/DTD/svg11.dtd" >
<svg xmlns="http://www.w3.org/2000/svg" xmlns:xlink="http://www.w3.org/1999/xlink" version="1.1">
<metadata></metadata>
<defs>
<font id="diner-fattregular" horiz-adv-x="1572" >
<font-face units-per-em="2048" ascent="1638" descent="-410" />
<missing-glyph horiz-adv-x="319" />
<glyph horiz-adv-x="0" />
<glyph horiz-adv-x="682" />
<glyph unicode=" "  horiz-adv-x="319" />
<glyph unicode="&#x09;" horiz-adv-x="319" />
<glyph unicode="&#xa0;" horiz-adv-x="319" />
<glyph unicode="!" horiz-adv-x="190" d="M94 -4q-33 2 -56.5 24.5t-23.5 55.5q0 35 23.5 57.5t56.5 22.5q35 0 58.5 -22.5t23.5 -57.5q0 -33 -23.5 -55.5t-58.5 -22.5v-2zM35 195v1441h108v-1441h-108v0z" />
<glyph unicode="&#x22;" horiz-adv-x="307" d="M215 1733q33 0 58.5 -25t25.5 -57q0 -23 -19.5 -59t-91.5 -136l-61 33l4 12l4 12t4 12.5t4 12.5t4.5 12t4.5 13q-12 -18 -31 -45t-43 -62l-62 33q2 8 5.5 16t7.5 19q0 2 1 6t3 6q4 16 8 29.5t6 25.5q-6 6 -11 15.5t-7 17.5q-4 8 -5 14.5t-1 12.5q0 33 24.5 57.5 t56.5 24.5q16 0 31 -6.5t25 -16.5q10 10 25.5 16.5t29.5 6.5v0z" />
<glyph unicode="#" horiz-adv-x="319" />
<glyph unicode="$" horiz-adv-x="319" />
<glyph unicode="%" horiz-adv-x="319" />
<glyph unicode="&#x26;" horiz-adv-x="526" d="M449 401v-225q0 -66 -57.5 -121t-135.5 -59h-4h-4h-4h-4q-78 0 -140.5 45t-62.5 135v500q0 45 12 81t39 60q-16 18 -27.5 43t-17.5 49q-2 12 -3 24.5t-1 22.5v502q0 76 58.5 123t129.5 55h9.5h11.5q80 0 143.5 -48t63.5 -130v-205h-107v205q0 33 -26.5 55.5t-69.5 22.5 q-39 -2 -70.5 -23.5t-31.5 -56.5v-500v-10t2 -10q2 -25 18 -46.5t53 -21.5h146v-102h-146q-6 0 -11 -1t-11 -3q-20 -8 -38 -29.5t-18 -58.5v-498q0 -33 21.5 -52.5t48.5 -25.5q8 -2 15.5 -3t13.5 -1h6h4q35 4 61.5 27.5t26.5 56.5v223h-111v105h275v-105h-57v0z" />
<glyph unicode="'" horiz-adv-x="210" d="M86 1456l-61 33q2 8 5 16t7 19q0 2 1 6t3 6q4 16 8 29.5t6 25.5q-6 6 -11 15.5t-7 17.5q-4 8 -5 14.5t-1 12.5q0 33 24.5 57.5t57.5 24.5t58.5 -25t25.5 -57q0 -23 -19.5 -59t-91.5 -136v0z" />
<glyph unicode="(" horiz-adv-x="323" d="M182 -4q0 2 -23.5 83t-52.5 204q-12 61 -25 126.5t-24 133.5q-10 68 -17 135t-7 129q0 61 5 130t15 140q12 72 25.5 142.5t27.5 132.5q27 123 50 204l24 80h117l-23 -83q-24 -83 -53 -207q-14 -59 -26.5 -124t-24.5 -132q-10 -74 -17.5 -147t-7.5 -136t7.5 -134 t19.5 -145q10 -63 23.5 -125.5t27.5 -119.5q29 -123 53 -204l23 -81l-117 -2v0z" />
<glyph unicode=")" horiz-adv-x="315" d="M143 -4h-116q0 2 24.5 84t52.5 207q14 55 26.5 117.5t23.5 123.5q12 74 20 144.5t8 134.5q0 63 -7 136t-19 147q-10 66 -23.5 130t-26.5 123q-31 125 -54 209l-23 84h116l24 -82q24 -81 52 -204q12 -63 26.5 -133t24.5 -140q10 -72 16.5 -140.5t6.5 -129.5t-7 -129 t-20 -135q-10 -68 -22.5 -132.5t-26.5 -123.5q-29 -125 -53 -207l-23 -82v-2z" />
<glyph unicode="*" horiz-adv-x="319" />
<glyph unicode="+" horiz-adv-x="319" />
<glyph unicode="," horiz-adv-x="182" d="M61 -131l-61 33q2 10 5 18t7 19q0 2 1 6t3 6q4 16 8.5 29.5t6.5 23.5q-6 6 -11.5 15.5t-7.5 17.5q-4 8 -5 14t-1 12q0 33 24.5 57.5t57.5 24.5t58.5 -24.5t25.5 -57.5q0 -23 -19.5 -57.5t-91.5 -134.5v-2z" />
<glyph unicode="-" horiz-adv-x="423" d="M45 639v102h369v-102h-369v0z" />
<glyph unicode="." horiz-adv-x="202" d="M96 -8q-33 2 -57.5 26.5t-24.5 57.5t24.5 57.5t57.5 24.5t58.5 -24.5t25.5 -57.5t-25.5 -57.5t-58.5 -24.5v-2z" />
<glyph unicode="/" horiz-adv-x="319" />
<glyph unicode="0" horiz-adv-x="481" d="M250 -6q-82 4 -146.5 40t-64.5 146v1276q0 78 63.5 129t149.5 51q84 0 144.5 -52t60.5 -128v-1278q0 -109 -59.5 -145.5t-133.5 -36.5h-4h-2h-4h-4v-2zM342 1456q0 33 -24.5 53.5t-55.5 24.5h-5h-5h-3h-3q-33 -2 -61.5 -23.5t-28.5 -52.5v-1278q0 -41 24.5 -64.5 t69.5 -23.5t68.5 23.5t23.5 62.5v1278v0z" />
<glyph unicode="1" horiz-adv-x="165" d="M29 0v1636h112v-1636h-112v0z" />
<glyph unicode="2" horiz-adv-x="481" d="M256 561q-8 0 -15.5 -1t-15.5 -3q-31 -8 -57.5 -28.5t-26.5 -49.5v-383h295v-100h-405v485q0 74 57 122t125 61q10 2 20.5 3t20.5 1q35 2 56.5 33.5t21.5 107.5v649q0 33 -28 52.5t-64 19.5q-39 0 -68 -20.5t-29 -53.5v-205h-112v207q0 70 58 124t149 54q8 0 16 -1t16 -1 q66 -10 120 -54t54 -124v-649q0 -102 -51 -174t-137 -72v0z" />
<glyph unicode="3" horiz-adv-x="462" d="M387 811q25 -23 36 -49.5t15 -54.5q2 -16 2 -33v-33v-448q0 -82 -61.5 -137.5t-145.5 -55.5q-82 0 -143 49t-61 135v195h108v-195q0 -35 30 -61.5t66 -26.5q37 0 66 25.5t29 64.5v457q0 41 -16.5 74t-57.5 33h-207v116h211q37 0 53.5 34t16.5 91v463q0 29 -27 48.5 t-59 23.5h-3h-3q-35 0 -62 -18.5t-27 -51.5v-211h-114v209q0 78 62.5 130t140.5 52h4h4h4h4q78 -4 134 -55t56 -127v-463q0 -63 -12 -107t-43 -73v0z" />
<glyph unicode="4" horiz-adv-x="528" d="M434 485v-489h-119v489h-284v82l182 1071h100l-170 -1048h174v1048h113v-1048h86v-105h-82v0z" />
<glyph unicode="5" horiz-adv-x="466" d="M141 1536v-496h97q92 0 147 -70.5t57 -154.5v-3v-3v-629q0 -70 -55 -121t-123 -59q-6 -2 -12 -2h-12q-82 0 -146.5 54t-64.5 130v195h108v-195q0 -35 31 -59.5t70 -26.5q39 0 68.5 25.5t29.5 60.5v627q0 8 -1 16.5t-3 16.5q-8 35 -33 64.5t-63 29.5h-203v704h416v-104 h-308v0z" />
<glyph unicode="6" horiz-adv-x="483" d="M354 1251v205v7t-2 7q-6 23 -29.5 42.5t-60.5 19.5q-47 0 -78.5 -22.5t-31.5 -51.5v-463q16 8 32.5 14.5t34.5 8.5q10 2 22.5 3t22.5 1q14 0 31.5 -3t36.5 -9q45 -16 83 -64.5t38 -140.5v-627q0 -82 -63.5 -133t-147.5 -51q-86 0 -145.5 52t-59.5 134v1278q0 68 63.5 119 t141.5 57q4 2 9 2h11q84 0 144.5 -51t60.5 -129v-205h-113v0zM340 807q0 6 -1 13t-1 16q-6 29 -23.5 54t-48.5 25q-8 0 -17 -1t-18 -3q-31 -6 -55 -28.5t-24 -73.5v-631q0 -35 26.5 -59.5t61.5 -24.5h7t7 2q33 4 59.5 27.5t26.5 54.5v629v0z" />
<glyph unicode="7" horiz-adv-x="485" d="M131 -4h-111l308 1536h-265v104h400l-332 -1640v0z" />
<glyph unicode="8" horiz-adv-x="468" d="M240 -6q-92 2 -148.5 53t-56.5 133v520q0 39 16.5 68t42.5 51q-29 29 -44 66t-15 76v497q0 82 65.5 132t143.5 50q80 -2 140 -44t60 -136v-499q0 -53 -15 -86t-40 -54q25 -20 40 -50t15 -71v-518q0 -84 -55 -135t-149 -51v-2zM336 700q0 37 -28.5 52.5t-65.5 15.5 q-6 0 -11.5 -1t-9.5 -1q-29 -6 -52.5 -23.5t-23.5 -44.5v-516q0 -35 29 -59.5t62 -26.5h3h3q37 0 65.5 23.5t28.5 62.5v518v0zM336 1460q0 25 -21.5 44.5t-48.5 25.5q-6 2 -12 3t-12 1q-37 0 -67 -21.5t-30 -56.5v-495q0 -39 27 -63t70 -24t68.5 27t25.5 60v499v0z" />
<glyph unicode="9" horiz-adv-x="479" d="M238 -6q-82 4 -144.5 52t-62.5 132v201h106v-201v-5v-5q6 -29 33 -52.5t70 -23.5q41 0 70.5 25.5t29.5 60.5v467q-27 -14 -56.5 -22.5t-60.5 -8.5q-82 0 -125 39t-57 86q-4 14 -6 28.5t-2 27.5v665q0 80 64.5 129t140.5 51h3h3h11h9q70 -8 127.5 -54t57.5 -126v-1282 q0 -76 -63.5 -129t-143.5 -53h-1h-1h-1h-1v-2zM340 1458q0 31 -23.5 50.5t-52.5 25.5q-4 0 -9 1t-11 1q-35 0 -64.5 -18.5t-29.5 -59.5v-661q0 -31 17 -53.5t56 -22.5q8 0 17.5 1t19.5 5q31 6 55.5 24.5t24.5 43.5v663v0z" />
<glyph unicode=":" horiz-adv-x="223" d="M131 113q-33 0 -57.5 25.5t-24.5 58.5t24.5 57.5t57.5 24.5t58.5 -25t25.5 -57q0 -33 -25.5 -58.5t-58.5 -25.5v0zM131 549q-33 0 -57.5 25.5t-24.5 58.5t24.5 57.5t57.5 24.5t58.5 -24.5t25.5 -57.5t-25.5 -58.5t-58.5 -25.5v0z" />
<glyph unicode=";" horiz-adv-x="223" d="M92 2l-61 33q2 8 5 16t7 19q0 2 1 6t3 6q4 16 8 29.5t6 25.5q-6 6 -11 15.5t-7 17.5q-4 8 -5 14t-1 13q0 33 24.5 57.5t57.5 24.5t58.5 -25t25.5 -57q0 -23 -19.5 -59t-91.5 -136v0zM119 549q-33 0 -57.5 25.5t-24.5 58.5t24.5 57.5t57.5 24.5t58.5 -24.5t25.5 -57.5 t-25.5 -58.5t-58.5 -25.5v0z" />
<glyph unicode="&#x3c;" horiz-adv-x="319" />
<glyph unicode="=" horiz-adv-x="319" />
<glyph unicode="&#x3e;" horiz-adv-x="319" />
<glyph unicode="?" horiz-adv-x="491" d="M233 0q-33 0 -57 25.5t-24 58.5t24.5 57.5t56.5 24.5q33 0 58.5 -24.5t25.5 -57.5t-25.5 -58.5t-58.5 -25.5v0zM291 408v-213h-111v301q14 2 30.5 6t33.5 10q41 14 73.5 42t32.5 81l2 827q0 31 -27.5 50.5t-60.5 25.5q-2 0 -5 1t-5 1h-3h-3q-39 0 -70 -23.5t-31 -52.5 v-211h-108v211q0 72 62.5 126.5t154.5 54.5v0v0q2 0 34 -3.5t68 -19.5q39 -16 71 -53t32 -107v-831q0 -78 -35 -124t-76 -71q-16 -10 -30.5 -17t-28.5 -11v0z" />
<glyph unicode="@" horiz-adv-x="319" />
<glyph unicode="A" horiz-adv-x="536" d="M412 -4l-80 643h-117l-76 -643h-108l75 643h-83v102h98l110 895h95l188 -1640h-102v0zM276 1167l-51 -426h94l-43 426v0z" />
<glyph unicode="B" horiz-adv-x="559" d="M365 -4h-232v643h-106v102h104v895h225q72 0 126.5 -47t54.5 -133v-651q0 -35 -13.5 -62.5t-36.5 -50.5q25 -18 41.5 -48t16.5 -89v-373q0 -76 -55.5 -130t-124.5 -54v-2zM438 553q0 27 -12 43t-27 27q-10 6 -18 10t-14 6h-125v-543h16h16h60h28q27 0 47.5 21.5 t26.5 46.5q0 6 1 10t1 8v371v0zM428 1456q0 29 -16.5 48.5t-36.5 25.5q-4 2 -9.5 3t-9.5 1h-20h-47h-24.5h-24.5v-86v-119v-136v-146v-160v-146h125h3h3q18 2 34.5 19.5t20.5 36.5q2 2 2 5v5v649v0z" />
<glyph unicode="C" horiz-adv-x="464" d="M225 -6q-78 4 -138 39t-60 145v1278q0 90 61.5 135t134.5 45h3h3q74 -2 135.5 -54t61.5 -126v-196h-102v196q0 33 -30 55.5t-71 22.5q-45 0 -62.5 -16.5t-23.5 -34.5q0 -8 -1 -14.5t-1 -12.5v-1280q0 -39 24.5 -59.5t53.5 -24.5h7h7q39 0 71 22.5t32 65.5v191h106v-193 q0 -74 -62.5 -128t-142.5 -54h-3h-3v-2z" />
<glyph unicode="D" horiz-adv-x="460" d="M254 -4h-225v1640h227h3h3q68 -2 124 -53t56 -129v-1274q0 -72 -43 -127t-145 -55v-2zM334 1456q0 20 -14.5 37.5t-32.5 28.5q-8 4 -16.5 7t-14.5 3h-119v-1434h115q37 0 57.5 22.5t24.5 49.5v5v5v1276v0z" />
<glyph unicode="E" horiz-adv-x="538" d="M117 -4v643h-101v102h99v895h385v-104h-273v-791h281v-102h-281v-543h281v-100h-391v0z" />
<glyph unicode="F" horiz-adv-x="536" d="M229 639v-643h-110v643h-94v102h94v895h381v-104h-271v-791h275v-102h-275v0z" />
<glyph unicode="G" horiz-adv-x="481" d="M227 -8q-80 2 -139 54t-59 132v1278q0 90 62.5 134t137.5 46h3h4q86 0 145 -47t59 -133v-194h-106v194v5t-2 5q-4 25 -32 46.5t-64 21.5q-43 0 -71 -21.5t-28 -56.5v-1278q0 -39 28 -62.5t64 -23.5q45 0 76 24.5t31 63.5v459h-105v102h49h160v-563q0 -84 -64.5 -134 t-148.5 -50v-2z" />
<glyph unicode="H" horiz-adv-x="557" d="M418 -4v643h-205v-643h-109v643h-84v102h82v895h113v-895h201v895h110v-1640h-108v0z" />
<glyph unicode="I" horiz-adv-x="174" d="M37 -4v1640h113v-1640h-113v0z" />
<glyph unicode="J" horiz-adv-x="466" d="M225 -8q-82 2 -142 52t-60 134v201h110v-201q0 -33 26.5 -57.5t65.5 -26.5q6 0 11.5 1t11.5 1q29 6 53.5 27.5t24.5 54.5v1458h114v-1458q0 -82 -56 -128t-124 -54q-10 0 -18.5 -1t-16.5 -1v-2z" />
<glyph unicode="K" horiz-adv-x="665" d="M422 182v373v9t-2 11q-4 25 -22.5 44.5t-53.5 19.5h-119v-643q0 2 -23.5 2h-51.5h-16.5h-16.5v643h-94v100h94v895h106v-895h119q35 0 58.5 16.5t23.5 49.5v829h106v-829q0 -33 -11 -63.5t-32 -53.5q20 -20 31.5 -51t11.5 -84v-373q0 -31 17.5 -48t38.5 -23 q16 -6 31.5 -7.5t21.5 -1.5h3h1v-110q-2 2 -5 2h-7q-78 6 -143.5 36.5t-65.5 151.5v0z" />
<glyph unicode="L" horiz-adv-x="430" d="M20 -4v1640h109v-1540h270v-100h-379v0z" />
<glyph unicode="M" horiz-adv-x="827" d="M692 -4v1079l-241 -1079h-74l-230 1053v-1053h-110v1640h102l275 -1335l288 1335h99v-1640h-109v0z" />
<glyph unicode="N" horiz-adv-x="481" d="M348 -4l-198 1016v-1016h-113v1640h104l205 -1052v1052h111v-1638l-109 -2v0z" />
<glyph unicode="O" horiz-adv-x="473" d="M242 -2q-82 2 -146.5 39t-64.5 147v1276q0 78 63.5 129t149.5 51q84 0 144.5 -52t60.5 -128v-1278q0 -109 -59.5 -145.5t-133.5 -36.5h-4h-2h-4h-4v-2zM338 1460q0 31 -23.5 51.5t-52.5 24.5q-4 2 -9 2h-9h-7.5t-7.5 -2q-33 -4 -59.5 -24.5t-26.5 -49.5v-1278 q0 -41 27 -64.5t72 -23.5t70.5 23.5t25.5 62.5v1278v0z" />
<glyph unicode="P" horiz-adv-x="548" d="M338 639h-107v-643h-110v643h-98v102h98v895h219q12 0 24.5 -1t24.5 -1q53 -8 98 -44t45 -134v-647q0 -72 -46 -121t-148 -49v0zM422 1456q0 47 -25.5 61.5t-56.5 14.5h-109v-791h105q35 0 60.5 16.5t25.5 51.5v647v0z" />
<glyph unicode="Q" horiz-adv-x="468" d="M449 -20l-84 69q-20 -18 -44 -30.5t-49 -16.5q-12 -2 -24 -3t-25 -1q-86 0 -138 40t-52 144v1280q0 94 60.5 136t131.5 42h3h3q76 -2 138.5 -45t62.5 -137v-1278q0 -14 -1 -24.5t-5 -20.5l86 -69l-63 -86v0zM324 1460q0 35 -30 55.5t-67 20.5t-61.5 -18.5t-24.5 -57.5 v-1278q0 -45 20.5 -63.5t61.5 -22.5q6 0 14.5 1t16.5 1q8 2 16.5 5t14.5 10l-109 84l70 82l78 -60v1241v0z" />
<glyph unicode="R" horiz-adv-x="663" d="M422 182v373v9t-2 11q-4 25 -22.5 44.5t-53.5 19.5h-119v-643q0 2 -23.5 2h-51.5h-16.5h-16.5v643h-94v100h94v895h231q76 0 129 -52t53 -128v-649q0 -33 -11 -63.5t-32 -53.5q20 -20 31.5 -51t11.5 -84v-373q0 -31 17.5 -48t38.5 -23q16 -6 31.5 -7.5t21.5 -1.5h3h1 v-110q-2 2 -5 2h-7q-78 6 -143.5 36.5t-65.5 151.5v0zM424 1456q0 31 -21.5 53.5t-52.5 22.5h-127v-791h119q35 0 58.5 16.5t23.5 49.5v649v0z" />
<glyph unicode="S" horiz-adv-x="473" d="M348 1270v184q0 33 -28.5 57.5t-69.5 24.5q-4 0 -9 -1t-10 -1q-31 -4 -57.5 -23.5t-26.5 -54.5v-649q0 -47 27 -66.5t59 -23.5h7.5h7.5h11h9q63 -4 115.5 -41t52.5 -123v-375q0 -76 -59.5 -127t-145.5 -55q-92 0 -146 54t-56 120v3v3v195h106v-193q0 -35 27.5 -60.5 t68.5 -25.5t71 24.5t30 63.5v373q0 35 -24.5 49t-53.5 16h-3h-3q-16 0 -35.5 2.5t-40.5 8.5q-51 14 -92 53t-41 125v649q0 72 46 115t99 57q14 4 28.5 6t29.5 2h1h3h3h1q86 -2 144.5 -51t58.5 -129v-186h-105v0z" />
<glyph unicode="T" horiz-adv-x="462" d="M293 1532v-1536h-113v1536h-151v104h409v-104h-145v0z" />
<glyph unicode="U" horiz-adv-x="481" d="M246 -8q-86 2 -148.5 50t-62.5 136v1458h108v-1458q0 -35 27 -57.5t59 -26.5q4 -2 7.5 -2h7.5h3h3q37 2 67.5 24.5t30.5 59.5v1460h109v-1460q0 -66 -47.5 -111t-102.5 -63q-16 -2 -31.5 -5t-29.5 -3v-2z" />
<glyph unicode="V" horiz-adv-x="536" d="M283 -4h-93l-163 1640h108l113 -1120l155 1120h109l-229 -1640v0z" />
<glyph unicode="W" horiz-adv-x="782" d="M594 -4h-94l-88 1057l-131 -1057h-95l-145 1640h109l102 -1036l113 1036h102l100 -1020l107 1020h106l-186 -1640v0z" />
<glyph unicode="X" horiz-adv-x="567" d="M342 809l207 -813h-113l-149 575l-135 -575h-119l192 813l-180 827h117l125 -575l153 575h115l-213 -827v0z" />
<glyph unicode="Y" horiz-adv-x="499" d="M293 551l2 -555l-107 2v551l-163 1087h114l109 -706l129 706h117l-201 -1085v0z" />
<glyph unicode="Z" horiz-adv-x="479" d="M143 96h285v-100h-399v70l303 1466h-277v104h406l-318 -1540v0z" />
<glyph unicode="[" horiz-adv-x="319" />
<glyph unicode="\" horiz-adv-x="319" />
<glyph unicode="]" horiz-adv-x="319" />
<glyph unicode="^" horiz-adv-x="319" />
<glyph unicode="_" horiz-adv-x="319" />
<glyph unicode="`" horiz-adv-x="319" />
<glyph unicode="a" horiz-adv-x="581" d="M436 -4v643h-196v-643h-113v643h-98v102h98v715q0 84 55.5 127t122.5 51q8 0 16.5 1t16.5 1q14 0 30.5 -2t32.5 -8q55 -14 100.5 -57t45.5 -113v-1460h-111v0zM436 1458q0 23 -17.5 40.5t-39.5 25.5q-10 6 -19.5 8t-17.5 2h-9t-9 -2q-31 -4 -57.5 -20.5t-26.5 -53.5v-717 h196v717v0z" />
<glyph unicode="b" horiz-adv-x="559" d="M365 -4h-232v643h-106v102h104v895h225q72 0 126.5 -47t54.5 -133v-651q0 -35 -13.5 -62.5t-36.5 -50.5q25 -18 41.5 -48t16.5 -89v-373q0 -76 -55.5 -130t-124.5 -54v-2zM438 553q0 27 -12 43t-27 27q-10 6 -18 10t-14 6h-125v-543h16h16h60h28q27 0 47.5 21.5 t26.5 46.5q0 6 1 10t1 8v371v0zM428 1456q0 29 -16.5 48.5t-36.5 25.5q-4 2 -9.5 3t-9.5 1h-20h-47h-24.5h-24.5v-86v-119v-136v-146v-160v-146h125h3h3q18 2 34.5 19.5t20.5 36.5q2 2 2 5v5v649v0z" />
<glyph unicode="c" horiz-adv-x="464" d="M225 -6q-78 4 -138 39t-60 145v1278q0 90 61.5 135t134.5 45h3h3q74 -2 135.5 -54t61.5 -126v-196h-102v196q0 33 -30 55.5t-71 22.5q-45 0 -62.5 -16.5t-23.5 -34.5q0 -8 -1 -14.5t-1 -12.5v-1280q0 -39 24.5 -59.5t53.5 -24.5h7h7q39 0 71 22.5t32 65.5v191h106v-193 q0 -74 -62.5 -128t-142.5 -54h-3h-3v-2z" />
<glyph unicode="d" horiz-adv-x="460" d="M254 -4h-225v1640h227h3h3q68 -2 124 -53t56 -129v-1274q0 -72 -43 -127t-145 -55v-2zM334 1456q0 20 -14.5 37.5t-32.5 28.5q-8 4 -16.5 7t-14.5 3h-119v-1434h115q37 0 57.5 22.5t24.5 49.5v5v5v1276v0z" />
<glyph unicode="e" horiz-adv-x="538" d="M117 -4v643h-101v102h99v895h385v-104h-273v-791h281v-102h-281v-543h281v-100h-391v0z" />
<glyph unicode="f" horiz-adv-x="536" d="M229 639v-643h-110v643h-94v102h94v895h381v-104h-271v-791h275v-102h-275v0z" />
<glyph unicode="g" horiz-adv-x="481" d="M227 -8q-80 2 -139 54t-59 132v1278q0 90 62.5 134t137.5 46h3h4q86 0 145 -47t59 -133v-194h-106v194v5t-2 5q-4 25 -32 46.5t-64 21.5q-43 0 -71 -21.5t-28 -56.5v-1278q0 -39 28 -62.5t64 -23.5q45 0 76 24.5t31 63.5v459h-105v102h49h160v-563q0 -84 -64.5 -134 t-148.5 -50v-2z" />
<glyph unicode="h" horiz-adv-x="557" d="M418 -4v643h-205v-643h-109v643h-84v102h82v895h113v-895h201v895h110v-1640h-108v0z" />
<glyph unicode="i" horiz-adv-x="174" d="M37 -4v1640h113v-1640h-113v0z" />
<glyph unicode="j" horiz-adv-x="466" d="M225 -8q-82 2 -142 52t-60 134v201h110v-201q0 -33 26.5 -57.5t65.5 -26.5q6 0 11.5 1t11.5 1q29 6 53.5 27.5t24.5 54.5v1458h114v-1458q0 -82 -56 -128t-124 -54q-10 0 -18.5 -1t-16.5 -1v-2z" />
<glyph unicode="k" horiz-adv-x="565" d="M432 -4v559q0 4 -1 7t-1 7q-8 27 -40 48.5t-75 21.5h-77v-643h-111v643h-98v102h98v895h109v-895h34l156 895h106l-153 -899q66 -14 113 -65t47 -117v-559h-107v0z" />
<glyph unicode="l" horiz-adv-x="430" d="M20 -4v1640h109v-1540h270v-100h-379v0z" />
<glyph unicode="m" horiz-adv-x="792" d="M655 0v1458q0 33 -26.5 54.5t-63.5 25.5h-3h-1h-3h-3q-35 0 -61.5 -21.5t-26.5 -56.5v-1460h-115v1462q0 35 -34.5 55.5t-75.5 22.5q-33 0 -58.5 -22.5t-25.5 -55.5v-1462h-113v1462q0 78 60.5 128t140.5 50q47 0 90 -14t74 -45q20 18 44.5 30.5t51.5 20.5q16 4 32.5 6 t30.5 2q78 -2 138.5 -55t60.5 -125v-1460h-113v0z" />
<glyph unicode="n" horiz-adv-x="481" d="M348 -4l-198 1016v-1016h-113v1640h104l205 -1052v1052h111v-1638l-109 -2v0z" />
<glyph unicode="o" horiz-adv-x="473" d="M242 -2q-82 2 -146.5 39t-64.5 147v1276q0 78 63.5 129t149.5 51q84 0 144.5 -52t60.5 -128v-1278q0 -109 -59.5 -145.5t-133.5 -36.5h-4h-2h-4h-4v-2zM338 1460q0 31 -23.5 51.5t-52.5 24.5q-4 2 -9 2h-9h-7.5t-7.5 -2q-33 -4 -59.5 -24.5t-26.5 -49.5v-1278 q0 -41 27 -64.5t72 -23.5t70.5 23.5t25.5 62.5v1278v0z" />
<glyph unicode="p" horiz-adv-x="548" d="M338 639h-107v-643h-110v643h-98v102h98v895h219q12 0 24.5 -1t24.5 -1q53 -8 98 -44t45 -134v-647q0 -72 -46 -121t-148 -49v0zM422 1456q0 47 -25.5 61.5t-56.5 14.5h-109v-791h105q35 0 60.5 16.5t25.5 51.5v647v0z" />
<glyph unicode="q" horiz-adv-x="468" d="M449 -20l-84 69q-20 -18 -44 -30.5t-49 -16.5q-12 -2 -24 -3t-25 -1q-86 0 -138 40t-52 144v1280q0 94 60.5 136t131.5 42h3h3q76 -2 138.5 -45t62.5 -137v-1278q0 -14 -1 -24.5t-5 -20.5l86 -69l-63 -86v0zM324 1460q0 35 -30 55.5t-67 20.5t-61.5 -18.5t-24.5 -57.5 v-1278q0 -45 20.5 -63.5t61.5 -22.5q6 0 14.5 1t16.5 1q8 2 16.5 5t14.5 10l-109 84l70 82l78 -60v1241v0z" />
<glyph unicode="r" horiz-adv-x="663" d="M422 182v373v9t-2 11q-4 25 -22.5 44.5t-53.5 19.5h-119v-643q0 2 -23.5 2h-51.5h-16.5h-16.5v643h-94v100h94v895h231q76 0 129 -52t53 -128v-649q0 -33 -11 -63.5t-32 -53.5q20 -20 31.5 -51t11.5 -84v-373q0 -31 17.5 -48t38.5 -23q16 -6 31.5 -7.5t21.5 -1.5h3h1 v-110q-2 2 -5 2h-7q-78 6 -143.5 36.5t-65.5 151.5v0zM424 1456q0 31 -21.5 53.5t-52.5 22.5h-127v-791h119q35 0 58.5 16.5t23.5 49.5v649v0z" />
<glyph unicode="s" horiz-adv-x="473" d="M348 1270v184q0 33 -28.5 57.5t-69.5 24.5q-4 0 -9 -1t-10 -1q-31 -4 -57.5 -23.5t-26.5 -54.5v-649q0 -47 27 -66.5t59 -23.5h7.5h7.5h11h9q63 -4 115.5 -41t52.5 -123v-375q0 -76 -59.5 -127t-145.5 -55q-92 0 -146 54t-56 120v3v3v195h106v-193q0 -35 27.5 -60.5 t68.5 -25.5t71 24.5t30 63.5v373q0 35 -24.5 49t-53.5 16h-3h-3q-16 0 -35.5 2.5t-40.5 8.5q-51 14 -92 53t-41 125v649q0 72 46 115t99 57q14 4 28.5 6t29.5 2h1h3h3h1q86 -2 144.5 -51t58.5 -129v-186h-105v0z" />
<glyph unicode="t" horiz-adv-x="462" d="M293 1532v-1536h-113v1536h-151v104h409v-104h-145v0z" />
<glyph unicode="u" horiz-adv-x="481" d="M246 -8q-86 2 -148.5 50t-62.5 136v1458h108v-1458q0 -35 27 -57.5t59 -26.5q4 -2 7.5 -2h7.5h3h3q37 2 67.5 24.5t30.5 59.5v1460h109v-1460q0 -66 -47.5 -111t-102.5 -63q-16 -2 -31.5 -5t-29.5 -3v-2z" />
<glyph unicode="v" horiz-adv-x="536" d="M283 -4h-93l-163 1640h108l113 -1120l155 1120h109l-229 -1640v0z" />
<glyph unicode="w" horiz-adv-x="786" d="M559 -4q-47 2 -90 16.5t-74 44.5q-20 -18 -43.5 -30.5t-50.5 -18.5q-16 -6 -33.5 -7t-34.5 -1q-78 2 -136 54t-58 124v1458h113v-1456q0 -33 24.5 -54.5t61.5 -25.5h3h3h1h3q35 0 63.5 21.5t28.5 56.5v1458h115v-1460q0 -35 32.5 -55.5t73.5 -22.5q35 0 61.5 22.5 t26.5 55.5v1460h113v-1460q0 -76 -61.5 -127t-141.5 -51v-2z" />
<glyph unicode="x" horiz-adv-x="567" d="M342 809l207 -813h-113l-149 575l-135 -575h-119l192 813l-180 827h117l125 -575l153 575h115l-213 -827v0z" />
<glyph unicode="y" horiz-adv-x="473" d="M236 -8q-90 2 -148.5 57t-58.5 131v197h114v-195v-7t2 -7q4 -29 28 -53.5t65 -24.5q47 0 71.5 26.5t24.5 63.5v479q-20 -8 -45 -11t-49 -5h-5.5h-7.5q-12 0 -23 1t-24 5q-49 10 -91 49t-42 109v829h113v-827q0 -33 23.5 -50.5t52.5 -17.5q41 0 68.5 17.5t27.5 50.5v827 h114v-1462q0 -82 -62 -131t-148 -49v-2z" />
<glyph unicode="z" horiz-adv-x="479" d="M143 96h285v-100h-399v70l303 1466h-277v104h406l-318 -1540v0z" />
<glyph unicode="{" horiz-adv-x="319" />
<glyph unicode="|" horiz-adv-x="319" />
<glyph unicode="}" horiz-adv-x="319" />
<glyph unicode="~" horiz-adv-x="319" />
<glyph unicode="&#xa1;" />
<glyph unicode="&#xa2;" />
<glyph unicode="&#xa3;" />
<glyph unicode="&#xa4;" />
<glyph unicode="&#xa5;" />
<glyph unicode="&#xa6;" />
<glyph unicode="&#xa7;" />
<glyph unicode="&#xa8;" />
<glyph unicode="&#xa9;" />
<glyph unicode="&#xaa;" />
<glyph unicode="&#xab;" />
<glyph unicode="&#xac;" />
<glyph unicode="&#xad;" />
<glyph unicode="&#xae;" />
<glyph unicode="&#xaf;" />
<glyph unicode="&#xb0;" />
<glyph unicode="&#xb1;" />
<glyph unicode="&#xb2;" />
<glyph unicode="&#xb3;" />
<glyph unicode="&#xb4;" />
<glyph unicode="&#xb5;" />
<glyph unicode="&#xb6;" />
<glyph unicode="&#xb7;" />
<glyph unicode="&#xb8;" />
<glyph unicode="&#xb9;" />
<glyph unicode="&#xba;" />
<glyph unicode="&#xbb;" />
<glyph unicode="&#xbc;" />
<glyph unicode="&#xbd;" />
<glyph unicode="&#xbe;" />
<glyph unicode="&#xbf;" />
<glyph unicode="&#xc0;" />
<glyph unicode="&#xc1;" />
<glyph unicode="&#xc2;" />
<glyph unicode="&#xc3;" />
<glyph unicode="&#xc4;" />
<glyph unicode="&#xc5;" />
<glyph unicode="&#xc6;" />
<glyph unicode="&#xc7;" />
<glyph unicode="&#xc8;" />
<glyph unicode="&#xc9;" />
<glyph unicode="&#xca;" />
<glyph unicode="&#xcb;" />
<glyph unicode="&#xcc;" />
<glyph unicode="&#xcd;" />
<glyph unicode="&#xce;" />
<glyph unicode="&#xcf;" />
<glyph unicode="&#xd0;" />
<glyph unicode="&#xd1;" />
<glyph unicode="&#xd2;" />
<glyph unicode="&#xd3;" />
<glyph unicode="&#xd4;" />
<glyph unicode="&#xd5;" />
<glyph unicode="&#xd6;" />
<glyph unicode="&#xd7;" />
<glyph unicode="&#xd8;" />
<glyph unicode="&#xd9;" />
<glyph unicode="&#xda;" />
<glyph unicode="&#xdb;" />
<glyph unicode="&#xdc;" />
<glyph unicode="&#xdd;" />
<glyph unicode="&#xde;" />
<glyph unicode="&#xdf;" />
<glyph unicode="&#xe0;" />
<glyph unicode="&#xe1;" />
<glyph unicode="&#xe2;" />
<glyph unicode="&#xe3;" />
<glyph unicode="&#xe4;" />
<glyph unicode="&#xe5;" />
<glyph unicode="&#xe6;" />
<glyph unicode="&#xe7;" />
<glyph unicode="&#xe8;" />
<glyph unicode="&#xe9;" />
<glyph unicode="&#xea;" />
<glyph unicode="&#xeb;" />
<glyph unicode="&#xec;" />
<glyph unicode="&#xed;" />
<glyph unicode="&#xee;" />
<glyph unicode="&#xef;" />
<glyph unicode="&#xf0;" />
<glyph unicode="&#xf1;" />
<glyph unicode="&#xf2;" />
<glyph unicode="&#xf3;" />
<glyph unicode="&#xf4;" />
<glyph unicode="&#xf5;" />
<glyph unicode="&#xf6;" />
<glyph unicode="&#xf7;" />
<glyph unicode="&#xf8;" />
<glyph unicode="&#xf9;" />
<glyph unicode="&#xfa;" />
<glyph unicode="&#xfb;" />
<glyph unicode="&#xfc;" />
<glyph unicode="&#xfd;" />
<glyph unicode="&#xfe;" />
<glyph unicode="&#xff;" />
<glyph unicode="&#x152;" />
<glyph unicode="&#x153;" />
<glyph unicode="&#x178;" />
<glyph unicode="&#x2c6;" />
<glyph unicode="&#x2dc;" />
<glyph unicode="&#x2000;" horiz-adv-x="866" />
<glyph unicode="&#x2001;" horiz-adv-x="1733" />
<glyph unicode="&#x2002;" horiz-adv-x="866" />
<glyph unicode="&#x2003;" horiz-adv-x="1733" />
<glyph unicode="&#x2004;" horiz-adv-x="577" />
<glyph unicode="&#x2005;" horiz-adv-x="433" />
<glyph unicode="&#x2006;" horiz-adv-x="288" />
<glyph unicode="&#x2007;" horiz-adv-x="288" />
<glyph unicode="&#x2008;" horiz-adv-x="216" />
<glyph unicode="&#x2009;" horiz-adv-x="346" />
<glyph unicode="&#x200a;" horiz-adv-x="96" />
<glyph unicode="&#x2010;" horiz-adv-x="423" d="M45 639v102h369v-102h-369v0z" />
<glyph unicode="&#x2011;" horiz-adv-x="423" d="M45 639v102h369v-102h-369v0z" />
<glyph unicode="&#x2012;" horiz-adv-x="423" d="M45 639v102h369v-102h-369v0z" />
<glyph unicode="&#x2013;" />
<glyph unicode="&#x2014;" />
<glyph unicode="&#x2018;" />
<glyph unicode="&#x2019;" />
<glyph unicode="&#x201a;" />
<glyph unicode="&#x201c;" />
<glyph unicode="&#x201d;" />
<glyph unicode="&#x201e;" />
<glyph unicode="&#x2022;" />
<glyph unicode="&#x2026;" />
<glyph unicode="&#x202f;" horiz-adv-x="346" />
<glyph unicode="&#x2039;" />
<glyph unicode="&#x203a;" />
<glyph unicode="&#x205f;" horiz-adv-x="433" />
<glyph unicode="&#x2122;" />
<glyph unicode="&#x25fc;" horiz-adv-x="1638" d="M0 1638h1638v-1638h-1638v1638z" />
</font>
</defs>
</svg>
